<svg xmlns:xlink="http://www.w3.org/1999/xlink" xmlns="http://www.w3.org/2000/svg" class="Icon Icon--trashbin" width="16" height="16" style="width: 16px; height: 16px; --fill: var(--textColor);"><defs><symbol id="icon-trashbin" viewBox="0 0 16 16" fill="none"><path fill-rule="evenodd" clip-rule="evenodd" d="M6.625 2.25C6.625 1.90482 6.90482 1.625 7.25 1.625H8.75C9.09518 1.625 9.375 1.90482 9.375 2.25V2.375H6.625V2.25ZM5.375 2.375V2.25C5.375 1.21447 6.21447 0.375 7.25 0.375H8.75C9.78553 0.375 10.625 1.21447 10.625 2.25V2.375H14C14.3452 2.375 14.625 2.65482 14.625 3C14.625 3.34518 14.3452 3.625 14 3.625H12.9468L12.9134 4.33091L12.9134 4.33265L12.5571 11.8681C12.494 13.2014 11.3947 14.25 10.0599 14.25H5.94015C4.60534 14.25 3.50598 13.2014 3.44293 11.8681L3.08665 4.33265L3.05319 3.625H2C1.65482 3.625 1.375 3.34518 1.375 3C1.375 2.65482 1.65482 2.375 2 2.375H5.375ZM4.33524 4.27336C4.32191 3.98838 4.54937 3.75 4.8347 3.75H11.1653C11.4507 3.75 11.6782 3.98852 11.6647 4.27361L11.3085 11.809C11.2769 12.4757 10.7273 13 10.0599 13H5.94015C5.27274 13 4.72306 12.4757 4.69154 11.809L4.33526 4.27361L4.33524 4.27336ZM6.46533 5.37792C6.80998 5.35877 7.10489 5.62264 7.12404 5.96728L7.37404 10.4673C7.39318 10.8119 7.12932 11.1068 6.78467 11.126C6.44002 11.1451 6.14511 10.8813 6.12596 10.5366L5.87596 6.03662C5.85682 5.69198 6.12068 5.39706 6.46533 5.37792ZM9.53467 5.37792C9.87932 5.39706 10.1432 5.69198 10.124 6.03662L9.87404 10.5366C9.85489 10.8813 9.55998 11.1451 9.21533 11.126C8.87068 11.1068 8.60682 10.8119 8.62596 10.4673L8.87596 5.96728C8.89511 5.62264 9.19002 5.35877 9.53467 5.37792Z" fill="var(--fill)"></path></symbol></defs><use xlink:href="#icon-trashbin"></use></svg>