<svg xmlns:xlink="http://www.w3.org/1999/xlink" xmlns="http://www.w3.org/2000/svg" class="Icon Icon--assignedToMe" width="16" height="16" style="width: 16px; height: 16px; --fill: var(--textColor);"><defs><symbol id="icon-assignedToMe" viewBox="0 0 16 16" fill="none"><path fill-rule="evenodd" clip-rule="evenodd" d="M8 13.75C11.1756 13.75 13.75 11.1756 13.75 8C13.75 4.82436 11.1756 2.25 8 2.25C4.82436 2.25 2.25 4.82436 2.25 8C2.25 11.1756 4.82436 13.75 8 13.75ZM8 15C11.866 15 15 11.866 15 8C15 4.13401 11.866 1 8 1C4.13401 1 1 4.13401 1 8C1 11.866 4.13401 15 8 15ZM8 10.75C9.51878 10.75 10.75 9.51878 10.75 8C10.75 6.48122 9.51878 5.25 8 5.25C6.48122 5.25 5.25 6.48122 5.25 8C5.25 9.51878 6.48122 10.75 8 10.75ZM8 12C10.2091 12 12 10.2091 12 8C12 5.79086 10.2091 4 8 4C5.79086 4 4 5.79086 4 8C4 10.2091 5.79086 12 8 12ZM8 9C8.55228 9 9 8.55228 9 8C9 7.44772 8.55228 7 8 7C7.44772 7 7 7.44772 7 8C7 8.55228 7.44772 9 8 9Z" fill="var(--fill)"></path></symbol></defs><use xlink:href="#icon-assignedToMe"></use></svg>