<svg xmlns:xlink="http://www.w3.org/1999/xlink" xmlns="http://www.w3.org/2000/svg" class="Icon Icon--edit" width="16" height="16" style="width: 16px; height: 16px; --fill: var(--textColor);"><defs><symbol id="icon-edit" viewBox="0 0 16 16" fill="none"><path fill-rule="evenodd" clip-rule="evenodd" d="M11.3068 1.71387C11.6973 1.32334 12.3305 1.32334 12.721 1.71387L14.1174 3.11021C14.5079 3.50073 14.5079 4.1339 14.1174 4.52442L7.77325 10.8685L4.68434 13.9724C4.5905 14.0667 4.46296 14.1197 4.32993 14.1197H2.71262C2.16033 14.1197 1.71262 13.672 1.71262 13.1197V11.502C1.71262 11.3692 1.76546 11.2419 1.85949 11.1481L5.10194 7.91351C5.10855 7.90692 5.11584 7.90145 5.1236 7.89709L11.3068 1.71387ZM6.13054 10.818L5.01137 9.69886L2.91262 11.7925L2.91262 12.9197H4.03899L6.13054 10.818ZM12.4473 2.6973C12.252 2.50204 11.9355 2.50204 11.7402 2.6973L11.6383 2.81018C11.443 3.00544 11.443 3.32203 11.6383 3.51729L12.3398 4.21875C12.535 4.41401 12.8516 4.41401 13.0469 4.21875L13.1488 4.10587C13.344 3.91061 13.344 3.59403 13.1488 3.39877L12.4473 2.6973Z" fill="var(--fill)"></path></symbol></defs><use xlink:href="#icon-edit"></use></svg>