<svg xmlns:xlink="http://www.w3.org/1999/xlink" xmlns="http://www.w3.org/2000/svg" class="Icon Icon--spreadsheet Icon--animated" width="16" height="16" style="width: 16px; height: 16px; --fill: var(--LinkButton-color);"><defs><symbol id="icon-spreadsheet" viewBox="0 0 16 16" fill="none"><path fill-rule="evenodd" clip-rule="evenodd" d="M13.5 2.75H11V4.5H14.75V4C14.75 3.30964 14.1904 2.75 13.5 2.75ZM14.75 5.5H11V7.5H14.75V5.5ZM10 5.5V7.5H1.25V5.5H10ZM10 8.5H1.25V10.5H10V8.5ZM10 11.5H1.25V12C1.25 12.6904 1.80964 13.25 2.5 13.25H10V11.5ZM11 11.5H14.75V12C14.75 12.6904 14.1904 13.25 13.5 13.25H11V11.5ZM14.75 10.5H11V8.5H14.75V10.5ZM10 4.5V2.75H2.5C1.80964 2.75 1.25 3.30964 1.25 4V4.5H10ZM2.5 14.5H10H11H13.5C14.8807 14.5 16 13.3807 16 12V4C16 2.61929 14.8807 1.5 13.5 1.5H2.5C1.11929 1.5 0 2.61929 0 4V12C0 13.3807 1.11929 14.5 2.5 14.5Z" fill="var(--fill)"></path></symbol></defs><use xlink:href="#icon-spreadsheet"></use></svg>