<svg width="16" height="16" viewBox="0 0 16 16" fill="none" xmlns="http://www.w3.org/2000/svg">
<path d="M7.14453 1.16898L1.17931 3.63728C0.847586 3.77456 0.851023 4.24583 1.18483 4.37814L7.17491 6.75355C7.70121 6.96229 8.28733 6.96229 8.81363 6.75355L14.8038 4.37805C15.1375 4.24583 15.1411 3.77465 14.8092 3.63737L8.8442 1.16889C8.29999 0.943702 7.68865 0.943702 7.14444 1.16889" fill="#FCB400"/>
<path d="M8.52593 8.05044V13.9846C8.52593 14.2668 8.81054 14.4602 9.07289 14.3562L15.7477 11.7653C15.8221 11.7358 15.886 11.6846 15.931 11.6184C15.976 11.5521 16 11.4739 16 11.3938V5.45969C16 5.17744 15.7154 4.98417 15.453 5.08818L8.77825 7.67901C8.70382 7.70854 8.63997 7.75975 8.59499 7.82599C8.55 7.89223 8.52594 7.97045 8.52593 8.05053" fill="#18BFFF"/>
<path d="M6.96708 8.35658L4.98615 9.31304L4.78502 9.41026L0.603395 11.4139C0.338415 11.5418 0 11.3486 0 11.0541V5.48448C0 5.37795 0.0546239 5.28597 0.127878 5.21679C0.15793 5.18686 0.192024 5.16129 0.229167 5.14082C0.329009 5.08086 0.471538 5.06485 0.592724 5.11279L6.9338 7.6253C7.25612 7.75318 7.28144 8.20482 6.96708 8.35667" fill="#F82B60"/>
<path d="M6.96726 8.35658L4.98633 9.31304L0.12806 5.2167C0.158118 5.1868 0.192212 5.16126 0.229349 5.14082C0.329192 5.08086 0.47172 5.06485 0.592906 5.11279L6.93398 7.6253C7.2563 7.75318 7.28162 8.20482 6.96726 8.35667" fill="black" fill-opacity="0.25"/>
</svg>
