<svg width="32" height="32" viewBox="0 0 32 32" fill="none" xmlns="http://www.w3.org/2000/svg">
<g clip-path="url(#clip0)">
<path d="M6 9.5C6 6.73858 8.23858 4.5 11 4.5H17.9289C19.255 4.5 20.5268 5.02678 21.4645 5.96447L23.5 8L24.5355 9.03554C25.4732 9.97322 26 11.245 26 12.5711V23.5C26 26.2614 23.7614 28.5 21 28.5H11C8.23858 28.5 6 26.2614 6 23.5V9.5Z" fill="#EAFAF1"/>
<path fill-rule="evenodd" clip-rule="evenodd" d="M11 26.5H21C22.6569 26.5 24 25.1569 24 23.5V13.5H19.5C18.1193 13.5 17 12.3807 17 11V6.5H11C9.34315 6.5 8 7.84315 8 9.5V12.5H6V9.5C6 6.73858 8.23858 4.5 11 4.5H17.9289C19.255 4.5 20.5268 5.02678 21.4645 5.96447L24.5355 9.03554C25.4732 9.97322 26 11.245 26 12.5711V23.5C26 26.2614 23.7614 28.5 21 28.5H11C8.58104 28.5 6.56329 26.7822 6.10002 24.5H8.17071C8.58254 25.6652 9.69378 26.5 11 26.5ZM19 6.69771V11C19 11.2761 19.2239 11.5 19.5 11.5H23.8023C23.6531 11.1096 23.4225 10.751 23.1213 10.4497L20.0503 7.37868C19.749 7.07747 19.3904 6.84692 19 6.69771Z" fill="#00C85A"/>
<path d="M3 15.5C3 14.6716 3.67157 14 4.5 14H15.5C16.3284 14 17 14.6716 17 15.5V21.5C17 22.3284 16.3284 23 15.5 23H4.5C3.67157 23 3 22.3284 3 21.5V15.5Z" fill="#00C85A"/>
<path d="M7.70309 17.9773C7.62496 17.0753 6.96445 16.5639 6.04826 16.5639C5.06815 16.5639 4.294 17.2173 4.294 18.4318C4.294 19.641 5.04684 20.2997 6.04826 20.2997C7.1136 20.2997 7.65337 19.5611 7.70309 18.9432L6.70167 18.9361C6.65195 19.2468 6.43178 19.4403 6.06957 19.4403C5.58839 19.4403 5.30962 19.0994 5.30962 18.4318C5.30962 17.7997 5.57951 17.4233 6.07667 17.4233C6.45664 17.4233 6.67326 17.647 6.70167 17.9773H7.70309ZM10.4612 17.75H11.4058C11.4023 17.0362 10.8518 16.5639 9.97115 16.5639C9.10645 16.5639 8.49565 17.0291 8.50098 17.7216C8.4992 18.2898 8.89338 18.6058 9.53791 18.7443L9.90012 18.8224C10.305 18.9112 10.4434 19.0124 10.447 19.1776C10.4434 19.3569 10.2801 19.483 9.96404 19.483C9.58585 19.483 9.36213 19.3054 9.34615 18.9716H8.40865C8.4122 19.8842 9.0301 20.2926 9.97825 20.2926C10.8998 20.2926 11.452 19.8949 11.4555 19.1776C11.452 18.6236 11.1217 18.2347 10.3192 18.0625L10.0209 17.9986C9.6764 17.9258 9.52193 17.8246 9.53081 17.6506C9.53258 17.4908 9.66575 17.3736 9.97115 17.3736C10.2907 17.3736 10.4417 17.5138 10.4612 17.75ZM13.1754 16.6136H12.0603L13.2606 20.25H14.61L15.8103 16.6136H14.6953L13.9495 19.1776H13.9211L13.1754 16.6136Z" fill="white"/>
</g>
<defs>
<clipPath id="clip0">
<rect width="32" height="32" fill="white"/>
</clipPath>
</defs>
</svg>
