<svg width="16" height="16" fill="none" xmlns="http://www.w3.org/2000/svg"><g clip-path="url(#clip0)"><path d="M15.55 7.552L8.665.667 7.998 0 2.815 5.183l-2.37 2.37a.634.634 0 000 .895l4.735 4.735L7.998 16l5.182-5.183.08-.08 2.29-2.29a.633.633 0 000-.895zm-7.552 2.813L5.632 8l2.366-2.365L10.363 8l-2.365 2.365z" fill="#2684FF"/><path d="M7.998 5.635A3.983 3.983 0 017.98.019L2.804 5.193l2.818 2.818 2.376-2.376z" fill="url(#paint0_linear)"/><path d="M10.37 7.994l-2.372 2.371a3.981 3.981 0 010 5.635l5.189-5.189-2.818-2.817z" fill="url(#paint1_linear)"/></g><defs><linearGradient id="paint0_linear" x1="7.575" y1="3.242" x2="4.272" y2="6.545" gradientUnits="userSpaceOnUse"><stop offset=".18" stop-color="#0052CC"/><stop offset="1" stop-color="#2684FF"/></linearGradient><linearGradient id="paint1_linear" x1="209.228" y1="490.616" x2="323.309" y2="416.678" gradientUnits="userSpaceOnUse"><stop offset=".18" stop-color="#0052CC"/><stop offset="1" stop-color="#2684FF"/></linearGradient><clipPath id="clip0"><path d="M0 0h16v16H0V0z" fill="#fff"/></clipPath></defs></svg>