<svg width="16" height="16" viewBox="0 0 16 16" fill="none" xmlns="http://www.w3.org/2000/svg">
<g clip-path="url(#clip0_2255_31742)">
<path d="M0.100752 9.34977L6.65022 15.8992C3.30562 15.3339 0.666103 12.6944 0.100752 9.34977Z" fill="#5E6AD2"/>
<path d="M0 7.5717L8.4283 16C8.92955 15.9732 9.41855 15.9003 9.89112 15.7855L0.214498 6.10887C0.0996698 6.58147 0.0267825 7.07045 0 7.5717Z" fill="#5E6AD2"/>
<path d="M0.633985 4.85105L11.149 15.366C11.5319 15.2016 11.8995 15.0083 12.2489 14.7886L1.21136 3.7511C0.99173 4.1005 0.79835 4.46807 0.633985 4.85105Z" fill="#5E6AD2"/>
<path d="M1.92375 2.78618C3.39193 1.08023 5.56693 0 7.99423 0C12.4157 0 16 3.5843 16 8.00578C16 10.4331 14.9198 12.6081 13.2138 14.0763L1.92375 2.78618Z" fill="#5E6AD2"/>
</g>
<defs>
<clipPath id="clip0_2255_31742">
<rect width="16" height="16" fill="white"/>
</clipPath>
</defs>
</svg>
