<svg width="16" height="16" fill="none" xmlns="http://www.w3.org/2000/svg"><path d="M1.99 12.593a1.998 1.998 0 01-1.74-1.01 1.932 1.932 0 01.054-1.99l3.586-5.63A2 2 0 015.66 3a1.996 1.996 0 011.713 1.056 1.93 1.93 0 01-.108 1.986l-3.584 5.63a1.999 1.999 0 01-1.69.92z" fill="#F62B54"/><path d="M8.14 12.593a1.992 1.992 0 01-1.737-1.008A1.926 1.926 0 016.457 9.6l3.58-5.618a1.997 1.997 0 011.771-.982c.73.016 1.39.424 1.725 1.062a1.926 1.926 0 01-.13 1.995l-3.578 5.618a1.996 1.996 0 01-1.684.917z" fill="#FC0"/><path d="M14.154 12.64c1.02 0 1.846-.81 1.846-1.807 0-.998-.826-1.808-1.846-1.808s-1.846.81-1.846 1.808.826 1.807 1.846 1.807z" fill="#00CA72"/></svg>