<svg width="16" height="16" viewBox="0 0 16 16" fill="none" xmlns="http://www.w3.org/2000/svg">
<g clip-path="url(#clip0_3179_35002)">
<path d="M16 4.00004C16 1.79095 14.2092 3.69059e-06 12.0001 3.69059e-06H4.00042C3.47505 -0.000711086 2.95471 0.102407 2.46931 0.303435C1.98391 0.504466 1.54302 0.799443 1.17198 1.17141C-0.389958 2.73361 -0.389957 5.26711 1.17198 6.82852L2.59648 8.25309C1.07971 8.82164 0 10.2846 0 12C0 14.209 1.79083 16 3.99992 16H12.0001C12.5255 16.0007 13.0458 15.8976 13.5312 15.6965C14.0166 15.4954 14.4574 15.2004 14.8284 14.8284C16.3905 13.2662 16.3905 10.7327 14.8284 9.17131L13.4039 7.74674C14.9204 7.17834 16 5.71523 16 4.00004ZM2.26933 13.7313C1.93324 13.3951 1.70231 12.9683 1.60474 12.503C1.50716 12.0378 1.54716 11.5541 1.71986 11.1112C1.89255 10.6683 2.19046 10.2852 2.57722 10.0089C2.96398 9.73243 3.42283 9.57461 3.89779 9.55466L8.79128 14.4487H3.99978C3.67824 14.4494 3.35977 14.3864 3.06274 14.2633C2.76571 14.1401 2.49604 13.9593 2.26933 13.7313ZM13.7311 10.2692C14.1901 10.7283 14.4481 11.351 14.4481 12.0003C14.4481 12.6496 14.1901 13.2722 13.7311 13.7313C13.272 14.1904 12.6494 14.4484 12.0001 14.4484C11.3509 14.4484 10.7283 14.1904 10.2692 13.7313L2.26933 5.7311C1.81309 5.27137 1.55761 4.64959 1.55882 4.00186C1.56005 3.35417 1.81787 2.73334 2.27584 2.27535C2.7338 1.81735 3.35459 1.55951 4.00224 1.55828C4.6499 1.55707 5.27167 1.81257 5.73134 2.26884L13.7311 10.2692ZM13.7311 5.7311C13.298 6.16635 12.7163 6.42158 12.1028 6.4455L7.2091 1.55185H12.0006C12.4847 1.55198 12.9579 1.69565 13.3604 1.9647C13.7629 2.23375 14.0765 2.6161 14.2617 3.06341C14.447 3.51071 14.4954 4.0029 14.4009 4.47772C14.3065 4.95258 14.0734 5.38872 13.7311 5.7311Z" fill="#59B1E4"/>
</g>
<defs>
<clipPath id="clip0_3179_35002">
<rect width="16" height="16" fill="white"/>
</clipPath>
</defs>
</svg>
