<!--<svg stroke="currentColor" fill="none" stroke-width="2" viewBox="0 0 24 24" stroke-linecap="round"-->
<!--     stroke-linejoin="round" height="1em" width="1em" xmlns="http://www.w3.org/2000/svg">-->
<!--    <path stroke="none" d="M0 0h24v24H0z" fill="none"></path>-->
<!--    <path d="M4 4m0 2a2 2 0 0 1 2 -2h12a2 2 0 0 1 2 2v12a2 2 0 0 1 -2 2h-12a2 2 0 0 1 -2 -2z"></path>-->
<!--    <path d="M9 4v16"></path>-->
<!--    <path d="M15 10l-2 2l2 2"></path>-->
<!--</svg>-->


<svg stroke="currentColor" fill="currentColor" stroke-width="0" viewBox="0 0 24 24"  xmlns="http://www.w3.org/2000/svg"><path fill-rule="evenodd" clip-rule="evenodd" d="M4 13.5h.5v-11H4A1.5 1.5 0 002.5 4v8A1.5 1.5 0 004 13.5zm1.5-11v11H12a1.5 1.5 0 001.5-1.5V4A1.5 1.5 0 0012 2.5H5.5zM12 15H4a3 3 0 01-3-3V4a3 3 0 013-3h8a3 3 0 013 3v8a3 3 0 01-3 3zM10.214 4.985a.617.617 0 01.839.904L8.826 7.954l2.236 2.166a.617.617 0 11-.858.886L7.5 8.386a.617.617 0 01.01-.894l2.703-2.507z" fill="var(--fill)"></path></svg>
