<svg xmlns:xlink="http://www.w3.org/1999/xlink" xmlns="http://www.w3.org/2000/svg" class="Icon Icon--browse" width="16" height="16" style="width: 16px; height: 16px; --fill: var(--secondaryTextColor);"><defs><symbol id="icon-browse" viewBox="0 0 16 16" fill="none"><path fill-rule="evenodd" clip-rule="evenodd" d="M2 4C2 3.58579 2.28782 3.25 2.64286 3.25H13.3571C13.7122 3.25 14 3.58579 14 4C14 4.41421 13.7122 4.75 13.3571 4.75H2.64286C2.28782 4.75 2 4.41421 2 4ZM2 8C2 7.58579 2.28782 7.25 2.64286 7.25H13.3571C13.7122 7.25 14 7.58579 14 8C14 8.41421 13.7122 8.75 13.3571 8.75H2.64286C2.28782 8.75 2 8.41421 2 8ZM2 12C2 11.5858 2.28782 11.25 2.64286 11.25H13.3571C13.7122 11.25 14 11.5858 14 12C14 12.4142 13.7122 12.75 13.3571 12.75H2.64286C2.28782 12.75 2 12.4142 2 12Z" fill="var(--fill)"></path></symbol></defs><use xlink:href="#icon-browse"></use></svg>