<svg xmlns:xlink="http://www.w3.org/1999/xlink" xmlns="http://www.w3.org/2000/svg" class="Icon Icon--task" width="16" height="16" style="width: 16px; height: 16px; --fill: var(--secondaryTextColor);"><defs><symbol id="icon-task" viewBox="0 0 16 16" fill="none"><path fill-rule="evenodd" clip-rule="evenodd" d="M4 2.5h8A1.5 1.5 0 0113.5 4v8a1.5 1.5 0 01-1.5 1.5H4A1.5 1.5 0 012.5 12V4A1.5 1.5 0 014 2.5zM1 4a3 3 0 013-3h8a3 3 0 013 3v8a3 3 0 01-3 3H4a3 3 0 01-3-3V4zm10.735 1.427a.7.7 0 00-1.11-.854L7.18 9.055l-1.66-1.85a.7.7 0 10-1.042.935l2.22 2.477a.7.7 0 001.076-.04l3.96-5.15z" fill="var(--fill)"></path></symbol></defs><use xlink:href="#icon-task"></use></svg>