<svg xmlns:xlink="http://www.w3.org/1999/xlink" xmlns="http://www.w3.org/2000/svg" class="Icon Icon--help" width="16" height="16" style="width: 16px; height: 16px; --fill: var(--IconButton-color);"><defs><symbol id="icon-help" viewBox="0 0 16 16" fill="none"><path fill-rule="evenodd" clip-rule="evenodd" d="M13.8 8A5.8 5.8 0 112.2 8a5.8 5.8 0 0111.6 0zM15 8A7 7 0 111 8a7 7 0 0114 0zM8.387 9.648h-1.3c-.051-1.398.351-1.914 1.097-2.375.492-.308.836-.675.836-1.214 0-.614-.48-1.012-1.078-1.012-.55 0-1.082.351-1.117 1.086h-1.39C5.472 4.648 6.582 3.89 7.95 3.89c1.492 0 2.52.828 2.52 2.148 0 .852-.41 1.441-1.118 1.879-.719.441-.965.781-.965 1.73zm.262 1.622c.004.468-.387.843-.883.843a.863.863 0 01-.879-.843c.004-.473.395-.844.88-.844.495 0 .886.37.882.844z" fill="var(--fill)"></path></symbol></defs><use xlink:href="#icon-help"></use></svg>