<svg xmlns:xlink="http://www.w3.org/1999/xlink" xmlns="http://www.w3.org/2000/svg" class="Icon Icon--addTask Icon--animated" width="16" height="16" style="width: 16px; height: 16px; --fill: var(--LinkButton-color);"><defs><symbol id="icon-addTask" viewBox="0 0 16 16" fill="none"><path d="M7.25 7.875h.625V5a.125.125 0 11.25 0v2.875H11a.125.125 0 010 .25H8.125V11a.125.125 0 01-.25 0V8.125H5a.125.125 0 110-.25h2.25zm3.75-6H5A3.125 3.125 0 001.875 5v6c0 1.726 1.4 3.125 3.125 3.125h6c1.726 0 3.125-1.4 3.125-3.125V5c0-1.726-1.4-3.125-3.125-3.125zM1.625 5A3.375 3.375 0 015 1.625h6A3.375 3.375 0 0114.375 5v6A3.375 3.375 0 0111 14.375H5A3.375 3.375 0 011.625 11V5z" stroke="var(--fill)" stroke-width="1.25"></path></symbol></defs><use xlink:href="#icon-addTask"></use></svg>