<svg xmlns:xlink="http://www.w3.org/1999/xlink" xmlns="http://www.w3.org/2000/svg" class="Icon Icon--inbox" width="16" height="16" style="width: 16px; height: 16px; --fill: var(--secondaryTextColor);"><defs><symbol id="icon-inbox" viewBox="0 0 16 16" fill="none"><path fill-rule="evenodd" clip-rule="evenodd" d="M3.5 10a1 1 0 01-1-1V4A1.5 1.5 0 014 2.5h8A1.5 1.5 0 0113.5 4v5a1 1 0 01-1 1h-2a2.5 2.5 0 01-5 0h-2zm8.5 5H4a3 3 0 01-3-3V4a3 3 0 013-3h8a3 3 0 013 3v8a3 3 0 01-3 3z" fill="var(--fill)"></path></symbol></defs><use xlink:href="#icon-inbox"></use></svg>