<svg xmlns:xlink="http://www.w3.org/1999/xlink" xmlns="http://www.w3.org/2000/svg" class="Icon Icon--createdbyme" width="16" height="16" style="width: 16px; height: 16px; --fill: var(--secondaryTextColor);"><defs><symbol id="icon-createdbyme" viewBox="0 0 16 16" fill="none"><path fill-rule="evenodd" clip-rule="evenodd" d="M11.2694 8.8378C10.9641 8.59197 10.6718 8.39539 10.4448 8.25461C10.7439 7.96256 10.991 7.61735 11.1706 7.23426C11.3819 6.78365 11.5 6.28062 11.5 5.75C11.5 3.817 9.933 2.25 8 2.25C6.067 2.25 4.5 3.817 4.5 5.75C4.5 6.27323 4.61481 6.76965 4.82062 7.21543C4.9983 7.60028 5.24381 7.94739 5.5418 8.24144C5.26087 8.4042 4.88361 8.64778 4.50586 8.96769C3.75391 9.6045 3 10.5437 3 11.75C3 12.8546 3.89543 13.75 5 13.75H7.00059C6.98692 13.3391 7.21181 12.8954 7.53713 12.5701L7.60721 12.5H5C4.58579 12.5 4.25 12.1642 4.25 11.75C4.25 11.2577 4.47796 10.7874 4.88524 10.3346C5.29415 9.87991 5.80684 9.53252 6.16844 9.32302C6.50567 9.12764 6.73247 8.78614 6.78176 8.39952C6.83105 8.0129 6.69719 7.62542 6.41977 7.35168C6.00486 6.94227 5.75 6.37704 5.75 5.75C5.75 4.50736 6.75736 3.5 8 3.5C9.24264 3.5 10.25 4.50736 10.25 5.75C10.25 6.38135 9.99161 6.95011 9.57158 7.36017C9.29658 7.62864 9.16037 8.00868 9.20221 8.39071C9.24406 8.77274 9.45931 9.11429 9.7859 9.31686C9.95757 9.42334 10.1645 9.56205 10.3794 9.72783L11.2694 8.8378Z" fill="var(--fill)"></path><rect x="9" y="11" width="4" height="4" rx="1" stroke="var(--fill)" stroke-width="1.25"></rect></symbol></defs><use xlink:href="#icon-createdbyme"></use></svg>