<svg xmlns:xlink="http://www.w3.org/1999/xlink" xmlns="http://www.w3.org/2000/svg" class="Icon Icon--google--monochrome" width="16" height="16" style="width: 16px; height: 16px; --fill: var(--contrastedTextColor);"><defs><symbol id="icon-google--monochrome" viewBox="0 0 16 16" fill="none"><g clip-path="url(#id_11)"><path d="M.82 4.455A8.007 8.007 0 000 8a7.976 7.976 0 008 8c1.951 0 3.816-.692 5.214-1.992 1.468-1.365 2.422-3.4 2.422-6.008 0-.473-.072-.982-.181-1.455H8v3.091h4.29c-.4 1.964-2.072 3.091-4.29 3.091A4.718 4.718 0 013.273 8 4.718 4.718 0 018 3.273c1.127 0 2.145.4 2.945 1.054L13.273 2C11.855.764 10.036 0 8 0A7.977 7.977 0 00.82 4.455z" fill="var(--fill)"></path></g><defs><clipPath id="id_11"><path d="M0 0h16v16H0V0z" fill="#fff"></path></clipPath></defs></symbol></defs><use xlink:href="#icon-google--monochrome"></use></svg>