<svg xmlns:xlink="http://www.w3.org/1999/xlink" xmlns="http://www.w3.org/2000/svg" class="Icon Icon--email" width="16" height="16" style="width: 16px; height: 16px; --fill: var(--contrastedTextColor);"><defs><symbol id="icon-email" viewBox="0 0 16 16" fill="none"><path d="M8.35349 15.0576C9.72246 15.0576 11.1766 14.7114 11.8425 14.3651L11.3897 13.0122C10.8837 13.2039 9.65854 13.5555 8.44405 13.5555C4.91777 13.5555 3.01081 11.6485 3.01081 8.19681C3.01081 4.97948 4.83254 2.73693 8.31088 2.73693C11.15 2.73693 13.2647 4.3456 13.2594 7.37117C13.2647 9.5711 12.9238 10.5619 12.0715 10.5619C11.6188 10.5619 11.3524 10.1997 11.3471 9.67231V4.60128H9.86095V5.19787H9.78638C9.61592 4.72912 8.5932 4.29766 7.4373 4.45746C5.95115 4.65455 4.52359 5.87436 4.52359 8.1542C4.52359 10.5033 5.802 11.8829 7.53851 11.9628C8.74767 12.0214 9.68517 11.4834 9.93553 10.8495H9.99945C10.1273 11.6485 10.8304 12.0853 11.9064 12.0267C14.1969 11.9415 14.8521 9.89603 14.8467 7.46172C14.8521 3.96207 12.4977 1.2561 8.34817 1.2561C3.927 1.2561 1.3542 3.97805 1.34888 8.21812C1.3542 12.5594 3.88439 15.0576 8.35349 15.0576ZM7.98062 10.434C6.59035 10.434 6.1216 9.30477 6.11628 8.09028C6.1216 6.87579 6.7981 5.98622 7.99128 5.98622C9.31763 5.98622 9.80769 6.63608 9.81301 8.08495C9.82899 9.64035 9.32828 10.434 7.98062 10.434Z" fill="var(--fill)"></path></symbol></defs><use xlink:href="#icon-email"></use></svg>