<svg xmlns:xlink="http://www.w3.org/1999/xlink" xmlns="http://www.w3.org/2000/svg" class="Icon Icon--apple" width="16" height="16" style="width: 16px; height: 16px; --fill: var(--contrastedTextColor);"><defs><symbol id="icon-apple" viewBox="0 0 16 16" fill="none"><g clip-path="url(#id_3)"><path d="M8.14242 4.27417C8.42361 4.27417 8.8829 4.16481 9.52027 3.9461C10.1576 3.7274 10.7107 3.61804 11.1793 3.61804C11.9479 3.61804 12.6322 3.82425 13.232 4.23667C13.5695 4.47413 13.9038 4.79594 14.235 5.20211C13.7351 5.62703 13.3695 6.00508 13.1383 6.33626C12.7196 6.93615 12.5103 7.59852 12.5103 8.32337C12.5103 9.11697 12.7321 9.83245 13.1758 10.4698C13.6195 11.1072 14.1256 11.5103 14.6943 11.679C14.4568 12.4476 14.0631 13.2505 13.5132 14.0879C12.6822 15.3439 11.8573 15.9719 11.0387 15.9719C10.7138 15.9719 10.2639 15.8688 9.68899 15.6626C9.12035 15.4564 8.63919 15.3533 8.24552 15.3533C7.85185 15.3533 7.39256 15.4595 6.86767 15.6719C6.34902 15.8906 5.92722 16 5.60229 16C4.62123 16 3.65892 15.1689 2.71535 13.5067C1.77179 11.8633 1.3 10.2511 1.3 8.67018C1.3 7.20172 1.65931 6.00508 2.37792 5.08026C3.10278 4.15544 4.0151 3.69303 5.11488 3.69303C5.58354 3.69303 6.14906 3.78988 6.81143 3.9836C7.48005 4.17731 7.92371 4.27417 8.14242 4.27417ZM11.0762 0.403046C11.0762 0.802968 10.9825 1.24038 10.795 1.71529C10.6076 2.1902 10.3107 2.63074 9.90457 3.03691C9.55464 3.38059 9.20783 3.61179 8.86415 3.73052C8.64544 3.79926 8.31426 3.85237 7.87059 3.88987C7.88309 2.94005 8.12992 2.11834 8.61108 1.42472C9.09848 0.731107 9.90145 0.2562 11.02 0C11.045 0.0812341 11.0606 0.153095 11.0668 0.215583C11.0731 0.278071 11.0762 0.340558 11.0762 0.403046Z" fill="var(--fill)"></path></g><defs><clipPath id="id_3"><rect width="16" height="16" fill="white"></rect></clipPath></defs></symbol></defs><use xlink:href="#icon-apple"></use></svg>