<svg width="16" height="16" fill="none" xmlns="http://www.w3.org/2000/svg"><g clip-path="url(#a)"><path d="M.82 11.545l2.69-2.058A4.747 4.747 0 013.273 8c0-.52.083-1.02.237-1.487L.82 4.455A8.007 8.007 0 000 8c0 1.275.294 2.478.82 3.545z" fill="#FBBC05"/><path d="M3.51 6.513A4.718 4.718 0 018 3.273c1.127 0 2.145.4 2.945 1.054L13.273 2C11.855.764 10.036 0 8 0A7.977 7.977 0 00.82 4.455l2.69 2.058z" fill="#EA4335"/><path d="M.818 11.543A7.977 7.977 0 008 16c4 0 7.636-2.91 7.636-8 0-.473-.072-.982-.181-1.455H8v3.091h4.29c-.4 1.964-2.072 3.091-4.29 3.091a4.718 4.718 0 01-4.492-3.246l-2.69 2.062z" fill="#34A853"/><path d="M8 6.545h7.454c.11.473.182.982.182 1.455 0 2.607-.954 4.643-2.422 6.008L10.66 12.03c.835-.527 1.416-1.34 1.63-2.394H8v-3.09z" fill="#4285F4"/></g><defs><clipPath id="a"><path fill="#fff" d="M0 0h16v16H0z"/></clipPath></defs></svg>