<svg class="w-5 h-5 " stroke="secondary"  viewBox="0 0 16 16"  xmlns="http://www.w3.org/2000/svg">
    <path d="M9.28111 1.73867C9.15131 1.51407 8.9647 1.32758 8.74002 1.19792C8.51533 1.06826 8.26049 1 8.00107 1C7.74166 1 7.48682 1.06826 7.26214 1.19792C7.03745 1.32758 6.85084 1.51407 6.72104 1.73867L4.61363 5.389L5.15124 5.69759C6.62896 6.55225 7.87201 7.75958 8.7694 9.21176C9.66678 10.6639 10.1906 12.3157 10.294 14.0197H8.81447C8.71204 12.5741 8.25658 11.1758 7.488 9.94717C6.71943 8.71857 5.66121 7.69727 4.40612 6.97278L3.86852 6.66527L1.90519 10.0791L2.44279 10.3876C3.09433 10.7704 3.65032 11.2962 4.06869 11.9254C4.48706 12.5547 4.75687 13.2708 4.85771 14.0197H1.47833C1.4351 14.0204 1.39245 14.0096 1.35476 13.9884C1.31707 13.9672 1.28567 13.9364 1.2638 13.8991C1.24192 13.8618 1.23035 13.8194 1.23026 13.7762C1.23017 13.7329 1.24157 13.6904 1.26329 13.653L2.20517 12.022C1.88702 11.7537 1.52267 11.5457 1.12996 11.408L0.197759 13.0359C0.0681255 13.2606 -7.81644e-05 13.5155 6.72246e-08 13.775C7.82988e-05 14.0344 0.0684358 14.2893 0.198205 14.514C0.327974 14.7387 0.514584 14.9252 0.739288 15.0549C0.963992 15.1846 1.21888 15.2529 1.47833 15.253H6.1286V14.6369C6.12891 13.6627 5.89762 12.7023 5.45381 11.8351C5.01001 10.9679 4.3664 10.2186 3.57606 9.64897L4.3158 8.36733C5.32869 9.06845 6.15667 10.0045 6.7289 11.0954C7.30113 12.1863 7.60058 13.3996 7.60164 14.6315V15.2487H11.5423V14.6326C11.5405 12.7094 11.0594 10.817 10.1425 9.12654C9.22567 7.43603 7.90191 6.0007 6.29096 4.95032L7.78657 2.35584C7.80801 2.31878 7.83881 2.28801 7.8759 2.26662C7.91298 2.24523 7.95504 2.23397 7.99785 2.23397C8.04066 2.23397 8.08272 2.24523 8.1198 2.26662C8.15689 2.28801 8.18769 2.31878 8.20913 2.35584L14.7313 13.653C14.7531 13.6904 14.7645 13.7329 14.7644 13.7762C14.7643 13.8194 14.7527 13.8618 14.7308 13.8991C14.709 13.9364 14.6776 13.9672 14.6399 13.9884C14.6022 14.0096 14.5595 14.0204 14.5163 14.0197H12.9906C13.0099 14.4315 13.0121 14.8433 12.9906 15.254H14.5217C14.7811 15.254 15.036 15.1857 15.2607 15.056C15.4854 14.9263 15.672 14.7397 15.8018 14.5151C15.9316 14.2904 15.9999 14.0355 16 13.7761C16.0001 13.5166 15.9319 13.2617 15.8022 13.037L9.28111 1.73867Z" fill="var(--fill)"></path>
</svg>
