<svg xmlns:xlink="http://www.w3.org/1999/xlink" xmlns="http://www.w3.org/2000/svg" class="Icon UserRow-icon UserRow-authenticationIcons--inactive Icon--apple-medium" width="16" height="16" style="width: 16px; height: 16px; --fill: var(--secondaryColor);"><defs><symbol id="icon-apple-medium" viewBox="0 0 16 16" fill="none"><path d="M8.12433 4.73989C8.37038 4.73989 8.77225 4.64421 9.32996 4.45284C9.88766 4.26147 10.3716 4.16579 10.7816 4.16579C11.4542 4.16579 12.0529 4.34622 12.5778 4.70709C12.873 4.91486 13.1655 5.19645 13.4553 5.55185C13.0179 5.92365 12.6981 6.25444 12.4958 6.54423C12.1294 7.06913 11.9462 7.6487 11.9462 8.28295C11.9462 8.97735 12.1404 9.6034 12.5286 10.1611C12.9168 10.7188 13.3596 11.0715 13.8572 11.2191C13.6494 11.8916 13.305 12.5942 12.8238 13.3269C12.0966 14.4259 11.3749 14.9754 10.6586 14.9754C10.3743 14.9754 9.98061 14.8852 9.47759 14.7047C8.98003 14.5243 8.55901 14.4341 8.21455 14.4341C7.87008 14.4341 7.46821 14.527 7.00892 14.7129C6.5551 14.9043 6.18603 15 5.90171 15C5.04329 15 4.20126 14.2728 3.37564 12.8184C2.55002 11.3804 2.13721 9.96973 2.13721 8.58641C2.13721 7.3015 2.4516 6.25444 3.08038 5.44523C3.71464 4.63601 4.51292 4.2314 5.47523 4.2314C5.88531 4.2314 6.38014 4.31615 6.95971 4.48565C7.54476 4.65515 7.93296 4.73989 8.12433 4.73989ZM10.6914 1.35267C10.6914 1.7026 10.6094 2.08533 10.4454 2.50088C10.2813 2.91642 10.0216 3.30189 9.66622 3.65729C9.36003 3.95802 9.05657 4.16032 8.75585 4.26421C8.56448 4.32435 8.27469 4.37083 7.88649 4.40363C7.89742 3.57254 8.1134 2.85354 8.53441 2.24663C8.96089 1.63972 9.66349 1.22417 10.6422 1C10.6641 1.07108 10.6777 1.13396 10.6832 1.18864C10.6887 1.24331 10.6914 1.29799 10.6914 1.35267Z" fill="var(--fill)"></path></symbol></defs><use xlink:href="#icon-apple-medium"></use></svg>