<svg xmlns:xlink="http://www.w3.org/1999/xlink" xmlns="http://www.w3.org/2000/svg" class="Icon UserRow-icon UserRow-authenticationIcons--inactive Icon--letter--closed" width="16" height="16" style="width: 16px; height: 16px; --fill: var(--secondaryColor);"><defs><symbol id="icon-letter--closed" viewBox="0 0 16 16" fill="none"><path fill-rule="evenodd" clip-rule="evenodd" d="M13.5 5.5v6a1 1 0 01-1 1h-9a1 1 0 01-1-1v-6c0-.08.01-.158.027-.232L7.63 9.907l.37.336.37-.336 5.103-4.64c.018.075.027.153.027.233zm-.833-.986L8 8.757 3.333 4.514c.054-.01.11-.014.167-.014h9c.057 0 .113.005.167.014zM15 11.5v-6A2.5 2.5 0 0012.5 3h-9A2.5 2.5 0 001 5.5v6A2.5 2.5 0 003.5 14h9a2.5 2.5 0 002.5-2.5z" fill="var(--fill)"></path></symbol></defs><use xlink:href="#icon-letter--closed"></use></svg>