<svg xmlns:xlink="http://www.w3.org/1999/xlink" xmlns="http://www.w3.org/2000/svg" class="Icon UserRow-icon UserRow-authenticationIcons--inactive Icon--sso" width="16" height="16" style="width: 16px; height: 16px; --fill: var(--secondaryColor);"><defs><symbol id="icon-sso" viewBox="0 0 16 16" fill="none"><path d="M9.14401 4.85601C8.87464 5.12538 8.87464 5.56212 9.14401 5.83149L9.74663 6.43411C10.016 6.70348 10.4527 6.70348 10.7221 6.43411C10.9915 6.16474 10.9915 5.728 10.7221 5.45863L10.1195 4.85601C9.85011 4.58664 9.41338 4.58664 9.14401 4.85601Z" fill="var(--fill)"></path><path fill-rule="evenodd" clip-rule="evenodd" d="M2.97877 14.6983C3.5785 14.7699 4.16264 14.4748 4.46087 13.9495L5.00002 13L6.49995 12.5L6.99995 11L8.28506 10.5L9.12669 9.65838L9.26012 9.7918C9.53645 10.0681 9.88768 10.2575 10.2704 10.3364L10.6427 10.4132C11.1779 10.5235 11.7327 10.3573 12.1191 9.97094L14.323 7.76703C15.0391 7.05092 15.1069 5.91254 14.4809 5.11648L12.9642 3.18795C12.866 3.0631 12.7533 2.95039 12.6285 2.8522L10.7 1.33564C9.90398 0.709597 8.76561 0.777404 8.0495 1.49352L5.6716 3.87141C5.28844 4.25457 5.16318 4.82562 5.35079 5.33398L5.51971 5.79172C5.61978 6.06287 5.77743 6.30912 5.98181 6.51349L6.15801 6.6897L1.51504 11.3327C1.18981 11.6579 1.03177 12.1143 1.08626 12.571L1.22319 13.7187C1.27788 14.1771 1.63927 14.5385 2.09767 14.5932L2.97877 14.6983ZM7.92578 6.6897L6.86569 5.62961C6.78905 5.55297 6.72993 5.46062 6.69241 5.35894L6.52348 4.9012C6.50476 4.85049 6.51726 4.79352 6.55548 4.7553L8.93338 2.3774C9.20192 2.10886 9.62881 2.08343 9.92733 2.3182L11.8558 3.83476C11.9026 3.87157 11.9448 3.91384 11.9817 3.96066L13.4983 5.88919C13.7331 6.18771 13.7077 6.6146 13.4391 6.88315L11.2352 9.08706C11.1462 9.17605 11.0184 9.21432 10.8952 9.18891L10.5229 9.11213C10.3793 9.08254 10.2476 9.01154 10.144 8.90792L9.12669 7.89061L7.58696 9.43034L5.99971 10.0479L5.51174 11.5118L4.1498 11.9658L3.37387 13.3323C3.32417 13.4199 3.22681 13.4691 3.12686 13.4571L2.44108 13.3753L2.32746 12.423C2.31837 12.3468 2.34471 12.2708 2.39892 12.2166L7.92578 6.6897Z" fill="var(--fill)"></path></symbol></defs><use xlink:href="#icon-sso"></use></svg>