<svg xmlns:xlink="http://www.w3.org/1999/xlink" xmlns="http://www.w3.org/2000/svg" class="Icon UserRow-icon Icon--google-medium" width="16" height="16" style="width: 16px; height: 16px; --fill: var(--secondaryColor);"><defs><symbol id="icon-google-medium" viewBox="0 0 16 16" fill="none"><path d="M1.87671 4.89835C1.41754 5.8319 1.16 6.88441 1.16 7.99999C1.16 9.11481 1.41718 10.1666 1.87577 11.0997C3.014 13.4156 5.39297 15 8.15997 15C9.86735 15 11.499 14.3943 12.7225 13.2566C14.0071 12.0622 14.8418 10.2815 14.8418 8C14.8418 7.58636 14.7782 7.14091 14.6827 6.72727H8.16L8.15997 9.43182H11.9145C11.5645 11.15 10.1009 12.1364 8.15997 12.1364C6.32406 12.1364 4.77423 10.9512 4.23103 9.30131C4.09641 8.89243 4.02364 8.45499 4.02364 7.99999C4.02364 7.54501 4.09643 7.10759 4.23105 6.69871C4.77425 5.04885 6.32407 3.86364 8.15999 3.86364C9.14635 3.86364 10.0373 4.21364 10.7373 4.78636L12.7736 2.75C11.5327 1.66818 9.9418 1 8.15999 1C5.39375 1 3.01531 2.58347 1.87671 4.89835Z" fill="var(--fill)"></path></symbol></defs><use xlink:href="#icon-google-medium"></use></svg>