<svg xmlns:xlink="http://www.w3.org/1999/xlink" xmlns="http://www.w3.org/2000/svg" class="Icon Icon--status" width="16" height="16" style="width: 16px; height: 16px; --fill: var(--textColor);"><defs><symbol id="icon-status" viewBox="0 0 16 16" fill="none"><path fill-rule="evenodd" clip-rule="evenodd" d="M4 2.5h8A1.5 1.5 0 0113.5 4v8a1.5 1.5 0 01-1.5 1.5H4A1.5 1.5 0 012.5 12V4A1.5 1.5 0 014 2.5zM1 4a3 3 0 013-3h8a3 3 0 013 3v8a3 3 0 01-3 3H4a3 3 0 01-3-3V4zm10.738 1.417a.7.7 0 00-1.125-.834L7.177 9.222 5.53 7.314a.7.7 0 00-1.06.915l2.218 2.57a.7.7 0 001.093-.041l3.957-5.341z" fill="var(--fill)"></path></symbol></defs><use xlink:href="#icon-status"></use></svg>