<svg xmlns:xlink="http://www.w3.org/1999/xlink" xmlns="http://www.w3.org/2000/svg" class="Icon Icon--tag" width="16" height="16" style="width: 16px; height: 16px; --fill: var(--secondaryTextColor);"><defs><symbol id="icon-tag" viewBox="0 0 16 16" fill="none"><path fill-rule="evenodd" clip-rule="evenodd" d="M2.5 5.5v5a.5.5 0 00.5.5h8.102a.5.5 0 00.374-.168l2.222-2.5a.5.5 0 000-.664l-2.222-2.5A.5.5 0 0011.102 5H3a.5.5 0 00-.5.5zm-1.5 5v-5a2 2 0 012-2h8.102a2 2 0 011.495.671l2.222 2.5a2 2 0 010 2.658l-2.222 2.5a2 2 0 01-1.495.671H3a2 2 0 01-2-2z" fill="var(--fill)"></path></symbol></defs><use xlink:href="#icon-tag"></use></svg>