<svg xmlns:xlink="http://www.w3.org/1999/xlink" xmlns="http://www.w3.org/2000/svg" class="Icon Icon--calendar" width="16" height="16" style="width: 16px; height: 16px; --fill: var(--secondaryTextColor);"><defs><symbol id="icon-calendar" viewBox="0 0 16 16" fill="none"><path fill-rule="evenodd" clip-rule="evenodd" d="M11 0.375C11.3452 0.375 11.625 0.654822 11.625 1V2.5C11.625 2.84518 11.3452 3.125 11 3.125C10.6548 3.125 10.375 2.84518 10.375 2.5V1C10.375 0.654822 10.6548 0.375 11 0.375ZM9.5 1.5H6.5V2.5C6.5 3.32843 5.82843 4 5 4C4.17157 4 3.5 3.32843 3.5 2.5V1.5H2.5C1.11929 1.5 0 2.61929 0 4V6.5V12C0 13.3807 1.11929 14.5 2.5 14.5H13.5C14.8807 14.5 16 13.3807 16 12V6.5V4C16 2.61929 14.8807 1.5 13.5 1.5H12.5V2.5C12.5 3.32843 11.8284 4 11 4C10.1716 4 9.5 3.32843 9.5 2.5V1.5ZM5.625 1C5.625 0.654822 5.34518 0.375 5 0.375C4.65482 0.375 4.375 0.654822 4.375 1V2.5C4.375 2.84518 4.65482 3.125 5 3.125C5.34518 3.125 5.625 2.84518 5.625 2.5V1ZM13.5 5.25H2.5C1.80964 5.25 1.25 5.80964 1.25 6.5V12C1.25 12.6904 1.80964 13.25 2.5 13.25H13.5C14.1904 13.25 14.75 12.6904 14.75 12V6.5C14.75 5.80964 14.1904 5.25 13.5 5.25ZM6.5 8.75C7.05228 8.75 7.5 8.30228 7.5 7.75C7.5 7.19772 7.05228 6.75 6.5 6.75C5.94772 6.75 5.5 7.19772 5.5 7.75C5.5 8.30228 5.94772 8.75 6.5 8.75ZM9.5 8.75C10.0523 8.75 10.5 8.30228 10.5 7.75C10.5 7.19772 10.0523 6.75 9.5 6.75C8.94771 6.75 8.5 7.19772 8.5 7.75C8.5 8.30228 8.94771 8.75 9.5 8.75ZM13.5 7.75C13.5 8.30228 13.0523 8.75 12.5 8.75C11.9477 8.75 11.5 8.30228 11.5 7.75C11.5 7.19772 11.9477 6.75 12.5 6.75C13.0523 6.75 13.5 7.19772 13.5 7.75ZM9.5 11.75C10.0523 11.75 10.5 11.3023 10.5 10.75C10.5 10.1977 10.0523 9.75 9.5 9.75C8.94771 9.75 8.5 10.1977 8.5 10.75C8.5 11.3023 8.94771 11.75 9.5 11.75ZM4.5 10.75C4.5 11.3023 4.05228 11.75 3.5 11.75C2.94772 11.75 2.5 11.3023 2.5 10.75C2.5 10.1977 2.94772 9.75 3.5 9.75C4.05228 9.75 4.5 10.1977 4.5 10.75ZM6.5 11.75C7.05228 11.75 7.5 11.3023 7.5 10.75C7.5 10.1977 7.05228 9.75 6.5 9.75C5.94772 9.75 5.5 10.1977 5.5 10.75C5.5 11.3023 5.94772 11.75 6.5 11.75Z" fill="var(--fill)"></path></symbol></defs><use xlink:href="#icon-calendar"></use></svg>