<svg class="w-5 h-5 " stroke="secondary"  viewBox="0 0 16 16"  xmlns="http://www.w3.org/2000/svg">
    <path d="M11.21 3.565c0 .37-.132.69-.397.96s-.588.405-.968.405c-.37 0-.69-.135-.96-.405s-.405-.59-.405-.96.135-.69.405-.96.59-.405.96-.405c.38 0 .703.135.968.405s.397.59.397.96zm-1.155 7.74c0 .16-.377.535-1.132 1.125-.755.59-1.438.885-2.048.885-.42 0-.725-.107-.915-.322a1.07 1.07 0 01-.285-.728c0-.17.025-.328.075-.473.05-.144.105-.292.165-.442L7.34 8.395c.08-.17.138-.307.173-.412a.893.893 0 00.052-.278c0-.08-.015-.138-.045-.173a.15.15 0 00-.12-.052c-.13 0-.382.197-.757.592-.375.396-.598.593-.668.593-.08 0-.16-.055-.24-.165-.08-.11-.12-.18-.12-.21 0-.1.095-.262.285-.487.19-.226.43-.463.72-.713.26-.23.573-.445.938-.645s.687-.3.967-.3c.45 0 .788.128 1.013.383.225.255.337.562.337.922 0 .15-.015.31-.045.48a1.69 1.69 0 01-.195.525l-1.14 2.505c-.09.21-.155.38-.195.51-.04.13-.06.22-.06.27 0 .06.015.098.045.112a.2.2 0 00.09.023c.22 0 .478-.158.773-.473.295-.314.482-.472.562-.472.07 0 .145.053.225.158.08.105.12.177.12.217z" fill="var(--fill)"></path>
</svg>
