<svg xmlns:xlink="http://www.w3.org/1999/xlink" xmlns="http://www.w3.org/2000/svg" class="Icon Icon--templates" width="16" height="16" style="width: 16px; height: 16px; --fill: var(--textColor);"><defs><symbol id="icon-templates" viewBox="0 0 16 16" fill="none"><path fill-rule="evenodd" clip-rule="evenodd" d="M5.99927 3.5L2.99927 3.50001C2.72313 3.50001 2.49927 3.72386 2.49927 4.00001V10C2.49927 10.2761 2.72313 10.5 2.99927 10.5H5.99927C6.78923 10.5 7.21159 10.8467 7.5 11.3297V5.51905C7.49952 5.51365 7.49927 5.50731 7.49927 5.5C7.49927 5.17188 7.49927 3.5 5.99927 3.5ZM7.99927 4C7.83635 3.1151 7.20649 2 5.99927 2L2.99927 2.00001C1.8947 2.00001 0.999268 2.89544 0.999268 4.00001V10C0.999268 11.1046 1.8947 12 2.99927 12L6.01632 12C7.75179 12.0123 8.00024 13.9999 8.00024 13.9999C8.00024 13.9999 8.2487 12.0123 9.98382 12L13 12C14.1046 12 15 11.1046 15 10V4.00001C15 2.89544 14.1046 2.00001 13 2.00001L10 2C8.79278 2 8.16292 3.1151 8 4H7.99927ZM10 3.5L13 3.50001C13.2761 3.50001 13.5 3.72386 13.5 4.00001V10C13.5 10.2761 13.2761 10.5 13 10.5H10C9.21071 10.5 8.78839 10.8461 8.5 11.3285V5.5C8.5 5.17188 8.5 3.5 10 3.5Z" fill="var(--fill)"></path></symbol></defs><use xlink:href="#icon-templates"></use></svg>