<svg class="w-5 h-5 " stroke="secondary"  viewBox="0 0 16 16"  xmlns="http://www.w3.org/2000/svg">
    <path fill-rule="evenodd" clip-rule="evenodd" d="M9.84544 0.0364905L0.965547 0.689919C0.249547 0.751893 0 1.21867 0 1.77824V11.4835C0 11.9196 0.15552 12.2923 0.5296 12.7904L2.61701 15.4967C2.95989 15.9325 3.27147 16.0257 3.92619 15.9945L14.2383 15.3723C15.1105 15.3103 15.36 14.9057 15.36 14.2213V3.30267C15.36 2.94891 15.2199 2.84672 14.807 2.54549C14.7843 2.52896 14.7607 2.51179 14.7364 2.49392L11.9018 0.503136C11.2164 0.00563176 10.9359 -0.0569709 9.84544 0.0364905ZM4.16 3.12357C3.31808 3.18037 3.12677 3.19328 2.64864 2.80512L1.4328 1.84085C1.3088 1.71616 1.37099 1.56064 1.68235 1.52976L10.2194 0.907573C10.9357 0.845226 11.3095 1.09451 11.5901 1.31211L13.0543 2.36987C13.1167 2.40085 13.2722 2.58725 13.0852 2.58725L4.26869 3.11627L4.16 3.12357ZM3.17797 14.1278V4.85829C3.17797 4.45397 3.30261 4.2672 3.67627 4.23579L13.8017 3.64496C14.1452 3.61387 14.3007 3.83179 14.3007 4.23579V13.4432C14.3007 13.8479 14.2382 14.1905 13.6772 14.2213L3.98789 14.7816C3.42715 14.8124 3.17797 14.626 3.17797 14.1278ZM12.7433 5.35552C12.8054 5.63578 12.7433 5.91573 12.4623 5.94725L11.9954 6.04021V12.8836C11.5901 13.1013 11.2163 13.2258 10.9049 13.2258C10.4062 13.2258 10.2813 13.0701 9.90779 12.6037L6.85403 7.81333V12.4482L7.82032 12.6661C7.82032 12.6661 7.82032 13.2258 7.04075 13.2258L4.89152 13.3503C4.82907 13.2258 4.89152 12.9149 5.10949 12.8526L5.67035 12.6973V6.56917L4.89163 6.50683C4.82917 6.22661 4.98469 5.82256 5.42123 5.7912L7.72688 5.63589L10.9049 10.4886V6.19573L10.0946 6.10283C10.0324 5.76021 10.2813 5.51147 10.5929 5.48059L12.7433 5.35552Z" fill="var(--fill)"></path>
</svg>
