<svg width="16" height="16" fill="none" xmlns="http://www.w3.org/2000/svg"><g clip-path="url(#clip0)"><path d="M3.362 10.11c0 .926-.756 1.681-1.681 1.681S0 11.036 0 10.111C0 9.186.756 8.43 1.68 8.43h1.682v1.68zM4.208 10.11c0-.924.756-1.68 1.681-1.68s1.681.756 1.681 1.68v4.21c0 .924-.756 1.68-1.68 1.68-.926 0-1.682-.756-1.682-1.68v-4.21z" fill="#E01E5A"/><path d="M5.89 3.362c-.926 0-1.682-.756-1.682-1.681S4.964 0 5.89 0 7.57.756 7.57 1.68v1.682H5.89zM5.89 4.208c.924 0 1.68.756 1.68 1.681S6.814 7.57 5.89 7.57H1.68C.757 7.57 0 6.814 0 5.89c0-.926.756-1.682 1.68-1.682h4.21z" fill="#36C5F0"/><path d="M12.639 5.89c0-.926.755-1.682 1.68-1.682.925 0 1.681.756 1.681 1.681s-.756 1.681-1.68 1.681h-1.681V5.89zM11.792 5.89c0 .924-.756 1.68-1.681 1.68S8.43 6.814 8.43 5.89V1.68C8.43.757 9.186 0 10.11 0c.926 0 1.682.756 1.682 1.68v4.21z" fill="#2EB67D"/><path d="M10.11 12.638c.926 0 1.682.756 1.682 1.681S11.036 16 10.11 16s-1.681-.755-1.681-1.68v-1.68h1.68zM10.11 11.791c-.924 0-1.68-.755-1.68-1.68 0-.925.756-1.681 1.68-1.681h4.21c.924 0 1.68.756 1.68 1.68 0 .926-.756 1.681-1.68 1.681h-4.21z" fill="#ECB22E"/></g><defs><clipPath id="clip0"><path d="M0 0h16v16H0V0z" fill="#fff"/></clipPath></defs></svg>