<svg width="16" height="16" viewBox="0 0 16 16" fill="none" xmlns="http://www.w3.org/2000/svg"><g clip-path="url(#clip0_240_21791)"><path d="M7.99955 12.2993C7.00776 12.2989 6.04979 11.9389 5.30333 11.2858C4.55691 10.6328 4.0727 9.73113 3.94058 8.74816C3.80842 7.76522 4.03733 6.76773 4.58479 5.94073C5.13227 5.11376 5.96115 4.51343 6.91761 4.25116V5.44361C6.27433 5.69579 5.7393 6.1647 5.40491 6.76934C5.07049 7.37398 4.95773 8.07643 5.08606 8.75534C5.21439 9.43428 5.57576 10.0471 6.10776 10.488C6.63979 10.9289 7.30906 11.1701 8 11.1701C8.69097 11.1701 9.36021 10.9289 9.89224 10.488C10.4242 10.0471 10.7856 9.43428 10.9139 8.75534C11.0423 8.07643 10.9295 7.37398 10.5951 6.76934C10.2607 6.1647 9.72567 5.69579 9.08239 5.44361V4.25116C10.0389 4.51346 10.8678 5.11386 11.4153 5.94092C11.9628 6.76801 12.1916 7.76561 12.0594 8.74861C11.9271 9.73164 11.4428 10.6333 10.6962 11.2863C9.94955 11.9392 8.99139 12.2992 7.99955 12.2993ZM7.41158 2.88259H8.58842V8.72013H7.41158V2.88259ZM7.99955 0.000976615C6.4173 0.00106732 4.87064 0.470337 3.55512 1.34944C2.23958 2.22855 1.21427 3.47801 0.608836 4.93983C0.00340496 6.40164 -0.154956 8.01016 0.153777 9.56198C0.462512 11.1138 1.22447 12.5392 2.34331 13.658C3.46215 14.7768 4.88761 15.5386 6.43945 15.8473C7.99127 16.1559 9.59979 15.9975 11.0616 15.392C12.5234 14.7865 13.7728 13.7611 14.6518 12.4455C15.5308 11.1299 16 9.58322 16 8.00098C16.0001 6.95034 15.7932 5.91001 15.3911 4.93934C14.9891 3.96867 14.3998 3.0867 13.6568 2.34383C12.9139 1.60094 12.0319 1.01168 11.0612 0.609686C10.0905 0.207697 9.05018 0.000856142 7.99955 0.000976615Z" fill="#E57CD8"/></g><defs><clipPath id="clip0_240_21791"><rect width="16" height="16" fill="white" transform="translate(0 0.000976562)"/></clipPath></defs></svg>
