<svg width="16" height="16" fill="none" xmlns="http://www.w3.org/2000/svg"><path d="M5.667 16a2.668 2.668 0 002.666-2.667v-2.666H5.667a2.668 2.668 0 000 5.333z" fill="#5ECB89"/><path d="M3 8a2.668 2.668 0 012.667-2.667h2.666v5.334H5.667A2.668 2.668 0 013 8z" fill="#9761F6"/><path d="M3 2.667A2.668 2.668 0 015.667 0h2.666v5.333H5.667A2.668 2.668 0 013 2.667z" fill="#E15A33"/><path d="M8.333 0H11a2.668 2.668 0 010 5.333H8.333V0z" fill="#EE7A69"/><path d="M13.667 8a2.668 2.668 0 01-5.334 0 2.668 2.668 0 015.334 0z" fill="#55BAF8"/></svg>