<svg width="16" height="16" fill="none" xmlns="http://www.w3.org/2000/svg"><path d="M15.97 8.928l-.896-2.755L13.3.71a.307.307 0 0 0-.581 0l-1.774 5.46H5.052L3.28.71a.306.306 0 0 0-.581 0L.927 6.17.031 8.928a.61.61 0 0 0 .22.682L8 15.24l7.747-5.63a.611.611 0 0 0 .224-.682z" fill="#FC6D26"/><path fill-rule="evenodd" clip-rule="evenodd" d="M.03 8.927l.896-2.755L8 15.24.25 9.61a.61.61 0 0 1-.22-.683zm15.94 0l-.897-2.755h-.001L8 15.236l7.749-5.627a.609.609 0 0 0 .22-.682z" fill="#FCA326"/><path fill-rule="evenodd" clip-rule="evenodd" d="M10.947 6.172h4.128L13.302.712a.307.307 0 0 0-.581 0l-1.774 5.46zm-10.02 0h4.13L8 15.236l2.946-9.066h-5.89L3.278.712a.307.307 0 0 0-.581 0l-1.77 5.46z" fill="#E24329"/></svg>