<svg width="16" height="16" viewBox="0 0 16 16" fill="none" xmlns="http://www.w3.org/2000/svg">
<path d="M9.5 0H3.125C2.50625 0 2 0.490909 2 1.09091V14.9091C2 15.5091 2.50625 16 3.125 16H12.875C13.4937 16 14 15.5091 14 14.9091V4.36364L9.5 0Z" fill="#0C9D59"/>
<path d="M5 7V13H11V7H5ZM7.625 12.1724H5.75V11.1379H7.625V12.1724ZM7.625 10.5172H5.75V9.48276H7.625V10.5172ZM7.625 8.86207H5.75V7.82759H7.625V8.86207ZM10.25 12.1724H8.375V11.1379H10.25V12.1724ZM10.25 10.5172H8.375V9.48276H10.25V10.5172ZM10.25 8.86207H8.375V7.82759H10.25V8.86207Z" fill="#F1F1F1"/>
<path d="M9.5 0V3.1791C9.5 3.76459 9.97422 4.375 10.5597 4.375H14.0156L9.5 0Z" fill="#87CEAC"/>
</svg>
