<svg width="103" height="104" viewBox="0 0 103 104" fill="none" xmlns="http://www.w3.org/2000/svg"><rect width="103" height="104" rx="24" fill="#FA5D00" /><path d="M20.4 23.088V85.14H24.3694C25.4055 85.1128 26.3904 84.6588 27.1133 83.8753C27.8362 83.0919 28.2397 82.0411 28.2375 80.9477V19H24.2681C23.2487 19.0259 22.278 19.4651 21.5576 20.2265C20.8373 20.9878 20.4227 22.0126 20.4 23.088ZM83.1 19V80.8409C83.0994 81.9519 82.6812 83.0173 81.9372 83.8036C81.1931 84.59 80.1839 85.033 79.1306 85.0357H75.2625V23.1948C75.2497 22.6499 75.3402 22.1077 75.5286 21.6001C75.7171 21.0926 75.9998 20.6299 76.3601 20.2391C76.7204 19.8484 77.1511 19.5375 77.6269 19.3247C78.1026 19.1119 78.6139 19.0015 79.1306 19H83.1ZM47.7806 85.0357V60.5079H55.7194C56.7383 60.4549 57.6987 59.9896 58.4007 59.2088C59.1027 58.428 59.4924 57.3918 59.4887 56.3157V43.8407H47.7806C47.2588 43.8403 46.742 43.9487 46.2599 44.1595C45.7779 44.3703 45.34 44.6794 44.9714 45.0692C44.6029 45.4589 44.3109 45.9215 44.1122 46.4306C43.9135 46.9396 43.8121 47.485 43.8137 48.0355V85.0357H47.7806ZM71.2931 19H67.425V35.5604C66.388 35.5588 65.3917 35.9859 64.6496 36.7501C63.9076 37.5143 63.479 38.5548 63.4556 39.6484V85.0382H67.425C68.4614 85.0116 69.4466 84.5579 70.1696 83.7743C70.8927 82.9907 71.296 81.9395 71.2931 80.846V19ZM36.075 85.0357H32.1056V23.1948C32.1061 22.373 32.341 21.5703 32.7796 20.8912C33.2183 20.2121 33.8405 19.6878 34.5654 19.3867C35.0453 19.1857 35.559 19.0916 36.075 19.1068H40.0444V64.4891C40.0438 65.6001 39.6256 66.6655 38.8815 67.4518C38.1375 68.2381 37.1282 68.6812 36.075 68.6839V85.0357Z" fill="white" /></svg>