<svg xmlns:xlink="http://www.w3.org/1999/xlink" xmlns="http://www.w3.org/2000/svg" class="Icon Icon--settings" width="16" height="16" style="width: 16px; height: 16px; --fill: var(--IconButton-color);"><defs><symbol id="icon-settings" viewBox="0 0 16 16" fill="none"><path fill-rule="evenodd" clip-rule="evenodd" d="M1.857 6.595h.67c.182 0 .393-.164.462-.358.064-.18.14-.36.223-.533.09-.185.057-.449-.072-.577l-.477-.477a.858.858 0 010-1.212l.775-.774a.852.852 0 01.606-.251c.229 0 .444.089.606.25l.477.478a.489.489 0 00.34.122.544.544 0 00.237-.05c.173-.085.353-.16.533-.224.194-.069.359-.28.359-.462v-.67c0-.472.384-.857.857-.857h1.095c.473 0 .857.385.857.857v.67c0 .182.164.393.358.462.18.064.36.139.533.223.068.032.151.05.236.05a.49.49 0 00.342-.122l.476-.477a.852.852 0 01.606-.25c.23 0 .444.089.606.25l.775.775a.851.851 0 01.252.606c0 .229-.09.444-.251.606l-.477.477c-.129.128-.162.393-.072.577.083.174.158.353.222.533.07.194.28.358.462.358h.67c.473 0 .857.385.857.857v1.096a.858.858 0 01-.857.857h-.67c-.182 0-.393.164-.462.358a5.31 5.31 0 01-.223.533c-.089.184-.056.448.072.577l.478.477a.858.858 0 010 1.212l-.776.775a.851.851 0 01-.606.251.852.852 0 01-.606-.25l-.477-.478a.49.49 0 00-.342-.122.542.542 0 00-.235.05 5.288 5.288 0 01-.533.223c-.194.069-.358.28-.358.462v.67a.858.858 0 01-.857.857H7.452a.858.858 0 01-.857-.857v-.67c0-.182-.164-.393-.358-.462a5.323 5.323 0 01-.533-.223.55.55 0 00-.235-.05.49.49 0 00-.342.123l-.477.476a.851.851 0 01-.606.252.851.851 0 01-.607-.252l-.774-.775a.859.859 0 010-1.212l.477-.477c.128-.128.16-.392.071-.577a5.31 5.31 0 01-.222-.533c-.07-.194-.28-.358-.462-.358h-.67A.858.858 0 011 8.548V7.453c0-.473.385-.858.857-.858zM11.563 8a3.563 3.563 0 11-7.126 0 3.563 3.563 0 017.125 0z" fill="var(--fill)"></path></symbol></defs><use xlink:href="#icon-settings"></use></svg>