<svg xmlns:xlink="http://www.w3.org/1999/xlink" xmlns="http://www.w3.org/2000/svg" class="Icon Icon--subtasks" width="16" height="16" style="width: 16px; height: 16px; --fill: var(--secondaryTextColor);"><defs><symbol id="icon-subtasks" viewBox="0 0 16 16" fill="none"><path fill-rule="evenodd" clip-rule="evenodd" d="M5.25 4.125C4.62868 4.125 4.125 4.62868 4.125 5.25C4.125 5.87132 4.62868 6.375 5.25 6.375C5.87132 6.375 6.375 5.87132 6.375 5.25C6.375 4.62868 5.87132 4.125 5.25 4.125ZM2.875 5.25C2.875 3.93832 3.93832 2.875 5.25 2.875C6.56168 2.875 7.625 3.93832 7.625 5.25C7.625 6.34589 6.88276 7.26841 5.87358 7.54229C5.81831 8.43515 6.00242 9.01128 6.25231 9.39043C6.50389 9.77213 6.86178 10.0142 7.25686 10.1671C7.65523 10.3214 8.07279 10.3769 8.40195 10.391C8.57499 9.24969 9.56035 8.375 10.75 8.375C12.0617 8.375 13.125 9.43832 13.125 10.75C13.125 12.0617 12.0617 13.125 10.75 13.125C9.7549 13.125 8.90274 12.513 8.54936 11.6449C8.48786 11.6445 8.42207 11.643 8.35261 11.6401C7.94008 11.6227 7.3747 11.5531 6.80562 11.3329C6.23196 11.1108 5.63672 10.7279 5.20861 10.0783C4.78954 9.44249 4.56803 8.60789 4.6217 7.54101C3.61492 7.26554 2.875 6.34418 2.875 5.25ZM10.75 9.625C10.1287 9.625 9.625 10.1287 9.625 10.75C9.625 11.3713 10.1287 11.875 10.75 11.875C11.3713 11.875 11.875 11.3713 11.875 10.75C11.875 10.1287 11.3713 9.625 10.75 9.625Z" fill="var(--fill)"></path></symbol></defs><use xlink:href="#icon-subtasks"></use></svg>