<svg xmlns:xlink="http://www.w3.org/1999/xlink" xmlns="http://www.w3.org/2000/svg" class="Icon Icon--private" width="16" height="16" style="width: 16px; height: 16px; --fill: var(--secondaryTextColor);"><defs><symbol id="icon-private" viewBox="0 0 16 16" fill="none"><path fill-rule="evenodd" clip-rule="evenodd" d="M2.667 8a2 2 0 011.666-1.972V5a3.667 3.667 0 017.334 0v1.028A2 2 0 0113.333 8v4a2 2 0 01-2 2H4.667a2 2 0 01-2-2V8zm7.666-3v1H5.667V5a2.333 2.333 0 014.666 0zm-5 2.333C4.597 7.333 4 7.93 4 8.667v2.666c0 .737.597 1.334 1.333 1.334h5.334c.736 0 1.333-.597 1.333-1.334V8.667c0-.737-.597-1.334-1.333-1.334H5.333z" fill="var(--fill)"></path></symbol></defs><use xlink:href="#icon-private"></use></svg>