<svg xmlns:xlink="http://www.w3.org/1999/xlink" xmlns="http://www.w3.org/2000/svg" class="Icon Icon--collapse" width="16" height="16" style="width: 16px; height: 16px; --fill: var(--IconButton-color);"><defs><symbol id="icon-collapse" viewBox="0 0 16 16" fill="none"><path fill-rule="evenodd" clip-rule="evenodd" d="M4 13.5h.5v-11H4A1.5 1.5 0 002.5 4v8A1.5 1.5 0 004 13.5zm1.5-11v11H12a1.5 1.5 0 001.5-1.5V4A1.5 1.5 0 0012 2.5H5.5zM12 15H4a3 3 0 01-3-3V4a3 3 0 013-3h8a3 3 0 013 3v8a3 3 0 01-3 3zM10.214 4.985a.617.617 0 01.839.904L8.826 7.954l2.236 2.166a.617.617 0 11-.858.886L7.5 8.386a.617.617 0 01.01-.894l2.703-2.507z" fill="var(--fill)"></path></symbol></defs><use xlink:href="#icon-collapse"></use></svg>