<svg xmlns:xlink="http://www.w3.org/1999/xlink" xmlns="http://www.w3.org/2000/svg" class="Icon Icon--comments" width="16" height="16" style="width: 16px; height: 16px; --fill: var(--secondaryTextColor);"><defs><symbol id="icon-comments" viewBox="0 0 16 16" fill="none"><path d="M7.58 11.78h-.003l-.371.002c-.843-.043-1.699.029-2.404.649l-.054.052-.001.001-.015.015a3.59 3.59 0 01-.31.278c-.222.177-.426.29-.554.316-.558.112-.893.142-1.407.086v-.003l.011-.046.01-.045c.024-.142.054-.27.09-.425.026-.115.056-.245.089-.404.069-.33.134-.717.134-1.13v-.04c0-.568-.218-1.03-.363-1.338l-.023-.049-.628.294.628-.294a14.415 14.415 0 01-.068-.145l-.682.31.682-.31a8.048 8.048 0 00-.124-.261L2.21 9.28a2.174 2.174 0 01-.072-.155 7.6 7.6 0 01-.13-.349A4.516 4.516 0 016.266 2.75h2.692a4.516 4.516 0 010 9.032L7.58 11.78z" stroke="var(--fill)" stroke-width="1.5" stroke-linejoin="bevel"></path></symbol></defs><use xlink:href="#icon-comments"></use></svg>